<?xml version="1.0" encoding="utf-8"?>
<!-- Generator: Adobe Illustrator 16.0.0, SVG Export Plug-In . SVG Version: 6.00 Build 0)  -->
<!DOCTYPE svg PUBLIC "-//W3C//DTD SVG 1.1//EN" "http://www.w3.org/Graphics/SVG/1.1/DTD/svg11.dtd">
<svg version="1.1" id="Layer_1" xmlns="http://www.w3.org/2000/svg" xmlns:xlink="http://www.w3.org/1999/xlink" x="0px" y="0px"
	 width="66.24px" height="66.24px" viewBox="0 0 66.24 66.24" enable-background="new 0 0 66.24 66.24" xml:space="preserve">
<g>
	<path fill="#DB7828" d="M25.536,42.842c-3.926,0-7.119,3.178-7.119,7.086c0,3.887,3.193,7.051,7.119,7.051
		c3.789,0,6.672-2.621,7.018-6.375v-0.117c0-0.039,0.004-0.078,0.01-0.117l0.01-0.141c0.006-0.121,0.016-0.245,0.016-0.371
		C32.589,45.99,29.425,42.842,25.536,42.842z"/>
	<path fill="#DB7828" d="M48.606,42.842c-3.924,0-7.121,3.178-7.121,7.086c0,3.822,3.166,7.051,6.912,7.051
		c3.85,0,6.891-2.704,7.227-6.431l-0.002-0.198c0-0.083,0.011-0.166,0.025-0.246l0.002-0.084c0.003-0.054,0.009-0.106,0.009-0.162
		C55.658,45.99,52.496,42.842,48.606,42.842z"/>
	<path fill="#DB7828" d="M61.2,0H5.04C2.257,0,0,2.257,0,5.04V61.2c0,2.783,2.257,5.04,5.04,5.04H61.2c2.783,0,5.04-2.257,5.04-5.04
		V5.04C66.24,2.257,63.983,0,61.2,0z M37.659,59.613h-1.942c-1.608,0-2.936-1.199-3.13-2.773h-0.021l-0.012-0.729
		c-1.592,2.301-4.206,3.65-7.156,3.65c-5.33,0-9.836-4.503-9.836-9.834c0-5.514,4.322-9.835,9.836-9.835
		c3.018,0,5.421,1.251,7.156,3.724v-9.457c0-0.184-0.162-0.344-0.348-0.344h-0.652c-0.775,0-1.408-0.633-1.408-1.41
		c0-0.775,0.633-1.41,1.408-1.41h0.652c1.745,0,3.166,1.421,3.166,3.164v22.092c0.002,0.183,0.162,0.344,0.345,0.344h1.942
		c0.776,0,1.41,0.631,1.41,1.408S38.436,59.613,37.659,59.613z M60.728,59.478h-1.941c-1.744,0-3.164-1.419-3.164-3.164v-0.209
		c-1.59,2.276-4.281,3.657-7.225,3.657c-5.496,0-9.8-4.319-9.8-9.834c0-5.514,4.304-9.835,9.8-9.835
		c3.013,0,5.494,1.285,7.225,3.728v-2.352c0-0.747,0.646-1.376,1.41-1.376c0.764,0,1.409,0.629,1.409,1.376v14.845
		c0,0.185,0.161,0.345,0.345,0.345h1.941c0.777,0,1.41,0.633,1.41,1.409C62.138,58.845,61.505,59.478,60.728,59.478z"/>
</g>
</svg>
